<svg id="Capa_1" enable-background="new 0 0 510 510" height="512" viewBox="0 0 510 510" width="512" xmlns="http://www.w3.org/2000/svg"><path d="m222.67 304.898v75.14c0 8.28-6.72 15-15 15h-192.67c-8.28 0-15-6.72-15-15v-75.13c0-47.24 38.3-85.54 85.53-85.54h51.61c47.24 0 85.53 38.29 85.53 85.53z" fill="#00ccb3"/><path d="m222.67 304.898v75.14c0 8.28-6.72 15-15 15h-96.34v-175.67h25.81c47.24 0 85.53 38.29 85.53 85.53z" fill="#00b6bd"/><path d="m82.85 319.608v75.43h-30v-75.43c0-8.28 6.71-15 15-15 8.28 0 15 6.72 15 15z" fill="#00b6bd"/><path d="m173.66 319.608v75.43h-30v-75.43c0-8.28 6.71-15 15-15 8.28 0 15 6.72 15 15z" fill="#00ccb3"/><path d="m168.24 175.718c0 31.43-25.48 56.91-56.9 56.91h-.01c-31.43-.01-56.9-25.48-56.9-56.91s25.47-56.89 56.9-56.9h.01c31.42 0 56.9 25.47 56.9 56.9z" fill="#ffdfcf"/><path d="m168.24 175.718c0 31.43-25.48 56.91-56.9 56.91h-.01v-113.81h.01c31.42 0 56.9 25.47 56.9 56.9z" fill="#ffcebf"/><path d="m510 304.908v75.13c0 8.28-6.72 15-15 15h-192.67c-8.28 0-15-6.72-15-15v-75.13c0-47.24 38.3-85.54 85.54-85.54h51.6c47.23 0 85.53 38.3 85.53 85.54z" fill="#ffb655"/><path d="m510 304.908v75.13c0 8.28-6.72 15-15 15h-96.34v-175.67h25.81c47.23 0 85.53 38.3 85.53 85.54z" fill="#ff9100"/><path d="m461.36 319.608v75.43h-30v-75.43c0-8.28 6.72-15 15-15 8.29 0 15 6.72 15 15z" fill="#ffb655"/><path d="m365.97 319.608v75.43h-30v-75.43c0-8.28 6.72-15 15-15 8.29 0 15 6.72 15 15z" fill="#ff9100"/><path d="m455.57 175.718c0 31.43-25.48 56.91-56.91 56.91-31.42 0-56.9-25.48-56.9-56.91s25.48-56.9 56.9-56.9c31.43 0 56.91 25.47 56.91 56.9z" fill="#ffdfcf"/><path d="m455.57 175.718c0 31.43-25.48 56.91-56.91 56.91v-113.81c31.43 0 56.91 25.47 56.91 56.9z" fill="#ffcebf"/><g fill="#5a5555"><path d="m176.033 34.983c-3.429-7.542-12.323-10.878-19.862-7.448-7.542 3.428-10.877 12.32-7.448 19.862l21.207 46.655c3.427 7.542 12.321 10.877 19.862 7.448 7.542-3.428 10.877-12.32 7.448-19.862z"/><path d="m353.829 27.534c-7.543-3.429-16.435-.093-19.862 7.448l-21.207 46.656c-3.429 7.542-.094 16.435 7.448 19.862 7.551 3.431 16.438.086 19.862-7.448l21.207-46.655c3.429-7.542.094-16.435-7.448-19.863z"/><path d="m255 14.732c-8.284 0-15 6.716-15 15v46.478c0 8.284 6.716 15 15 15s15-6.716 15-15v-46.478c0-8.284-6.716-15-15-15z"/></g><path d="m366.34 405.138v75.13c0 8.28-6.72 15-15 15h-192.68c-8.28 0-15-6.72-15-15v-75.13c0-3.42.2-6.79.6-10.1 4.998-42.546 41.186-75.43 84.94-75.43h51.6c43.765 0 79.943 32.896 84.94 75.43.4 3.31.6 6.68.6 10.1z" fill="#ff7c48"/><path d="m366.34 405.138v75.13c0 8.28-6.72 15-15 15h-96.34v-175.66h25.8c43.765 0 79.943 32.896 84.94 75.43.4 3.31.6 6.68.6 10.1z" fill="#ff415b"/><path d="m222.28 432.358v62.91h-30v-62.91c0-8.28 6.72-15 15-15 8.29 0 15 6.72 15 15z" fill="#ff415b"/><path d="m317.72 432.358v62.91h-30v-62.91c0-8.28 6.71-15 15-15 8.28 0 15 6.72 15 15z" fill="#ff7c48"/><path d="m311.91 275.958c0 31.43-25.48 56.9-56.91 56.9s-56.91-25.47-56.91-56.9 25.48-56.91 56.91-56.91 56.91 25.48 56.91 56.91z" fill="#ffdfcf"/><path d="m311.91 275.958c0 31.43-25.48 56.9-56.91 56.9v-113.81c31.43 0 56.91 25.48 56.91 56.91z" fill="#ffcebf"/></svg>