<svg height="512" viewBox="0 0 58 58" width="512" xmlns="http://www.w3.org/2000/svg"><g id="Page-1" fill="none" fill-rule="evenodd"><g id="045---Romance-Film" fill-rule="nonzero"><rect id="Rectangle-path" fill="#35495e" height="14" rx="1" width="58"/><g fill="#ecf0f1"><rect id="Rectangle-path" height="6" rx="1" width="6" x="4" y="4"/><rect id="Rectangle-path" height="6" rx="1" width="6" x="15" y="4"/><rect id="Rectangle-path" height="6" rx="1" width="6" x="26" y="4"/><rect id="Rectangle-path" height="6" rx="1" width="6" x="37" y="4"/><rect id="Rectangle-path" height="6" rx="1" width="6" x="48" y="4"/></g><rect id="Rectangle-path" fill="#35495e" height="14" rx="1" width="58" y="44"/><rect id="Rectangle-path" fill="#ecf0f1" height="6" rx="1" width="6" x="4" y="48"/><rect id="Rectangle-path" fill="#ecf0f1" height="6" rx="1" width="6" x="15" y="48"/><rect id="Rectangle-path" fill="#ecf0f1" height="6" rx="1" width="6" x="26" y="48"/><rect id="Rectangle-path" fill="#ecf0f1" height="6" rx="1" width="6" x="37" y="48"/><rect id="Rectangle-path" fill="#ecf0f1" height="6" rx="1" width="6" x="48" y="48"/><path id="Rectangle-path" d="m4 14h50v30h-50z" fill="#2c3e50"/><path id="Shape" d="m35.13 20.07c1.4690298-1.335843 3.3844251-2.0741797 5.37-2.07 3.85 0 6.5 3.3 6.5 7.17 0 4.71-4.05 9.4-12.59 14.72-.2525523.1507336-.5674477.1507336-.82 0-1.71-1.07-3.24-2.1-4.59-3.12z" fill="#df4d60"/><path id="Shape" d="m24 21.3c-1.5255114-2.0629161-3.9343406-3.2858602-6.5-3.3-3.848 0-6.5 3.3-6.5 7.167 0 4.717 4.051 9.4 12.594 14.719.249329.151992.562671.151992.812 0 8.543-5.315 12.594-10.002 12.594-14.719 0-3.867-2.652-7.167-6.5-7.167-2.5656594.0141398-4.9744886 1.2370839-6.5 3.3z" fill="#ff5364"/><path id="Shape" d="m15 26c-.5522847 0-1-.4477153-1-1-.0315929-1.0702387.3796808-2.1061138 1.1367835-2.8632165s1.7929778-1.1683764 2.8632165-1.1367835c.3572656-.0010718.6879644.1885367.8675254.4974019s.1807046.690063.003 1-.5072598.5015263-.8645254.5025981c-.5411723-.035899-1.0715853.1630423-1.4556669.5459751s-.5846109.9127475-.5503331 1.4540249c0 .5522847-.4477153 1-1 1z" fill="#fb7b76"/></g></g></svg>